<?xml version="1.0" encoding="UTF-8" standalone="no"?>
<svg xmlns="http://www.w3.org/2000/svg" xmlns:svg="http://www.w3.org/2000/svg" xmlns:xlink="http://www.w3.org/1999/xlink" viewBox="0 0 500 500" role="img" aria-labelledby="title-fcc-seal">
<title id="title-fcc-seal">Federal Communications Commission Official Seal</title>
  <defs>
    <style>
      .a {
        fill: #726658;
      }

      .b, .j, .k {
        fill: none;
      }

      .b, .e, .f, .g, .h, .j, .k {
        stroke: #fff;
      }

      .b {
        stroke-linecap: round;
        stroke-linejoin: round;
        stroke-width: 2px;
      }

      .c, .i {
        fill: #fff;
      }

      .d, .e, .f, .g {
        fill: #ca992c;
      }

      .e, .f, .g, .h, .j, .k {
        stroke-miterlimit: 10;
      }

      .e, .g, .h {
        stroke-width: 3px;
      }

      .f {
        stroke-width: 1.75px;
      }

      .g, .i, .l {
        fill-rule: evenodd;
      }

      .h, .l, .m {
        fill: #1c3664;
      }

      .j {
        stroke-width: 1.5px;
      }

      .k {
        stroke-width: 1.8px;
      }
    </style>
  </defs>
  <path class="a" d="M440.17,250c0,104.94-85.07,190-190,190s-190-85.06-190-190,85.07-190,190-190,190,85.07,190,190"/>
  <path class="b" d="M119.23,265.43q18.26,75,36.5,150.05m-18.67-12.3q-8.91-68.87-17.83-137.75L113.8,383.56M97.23,364.61q11-49.59,22-99.18m-3.11,64.25h18.63l-8.21-6.26H107.06Zm1.51-27.6,10.49,0-4.93-4-11.19,0Zm-3.28,60.5H142.7l-12.58-12.33-29.78.35ZM127,394.87l23.67,0-16.8-17.34H108.66"/>
  <path class="b" d="M366.27,401.75,384,264.64l5.1,116m16.35-19.23L384,264.64,348.69,412.88m47.46-90.17H376.69l-8,6.05,18.44.16Zm-4.83-25.15H380l-4.82,4h10.39Zm11.55,52.15H373.16L361,361.8h27.85Zm-10.59,27.18H369.43L353.1,394.31h20.55"/>
  <path class="c" d="M499.5,250c0,137.8-111.71,249.5-249.5,249.5S.5,387.8.5,250,112.2.5,250,.5,499.5,112.21,499.5,250m-60.1,0c0-104.6-84.8-189.4-189.4-189.4S60.6,145.4,60.6,250,145.4,439.4,250,439.4,439.4,354.6,439.4,250"/>
  <path class="d" d="M250,499.5A249.57,249.57,0,0,1,152.88,20.11,249.56,249.56,0,0,1,347.12,479.89,248,248,0,0,1,250,499.5m0-488.07c-131.55,0-238.57,107-238.57,238.57S118.45,488.57,250,488.57,488.57,381.55,488.57,250,381.55,11.43,250,11.43"/>
  <path class="e" d="M285.38,397.23c-4.75-4.51-10.38-7.44-15.94-10.32-6.57,1-13.3.26-20-.24-6.71.5-13.44,1.21-20,.24-5.55,2.88-11.18,5.81-15.93,10.32s-7.18,12.64-7.88,19.84c3.39-2.65,5.91-6.1,9.93-6.59-.19,5.46,2.7,12.38,4.09,17.59,2.47-1.28,2.68-4,5.15-5.25,1.05,4.59,4.91,10.27,7,14.34,1.78-1.19,1.27-3.65,3-4.84a2.08,2.08,0,0,1,1.19-.49c.72,0,1.24.8,1.66,1.5a63.17,63.17,0,0,0,11.81,14.15,62.65,62.65,0,0,0,11.81-14.15c.43-.7.95-1.47,1.67-1.5a2.1,2.1,0,0,1,1.19.49c1.77,1.19,1.26,3.65,3,4.84,2-4.07,5.91-9.75,7-14.34,2.47,1.28,2.68,4,5.15,5.25,1.39-5.21,4.28-12.13,4.09-17.59,4,.49,6.54,3.94,9.93,6.59-.7-7.2-3.13-15.34-7.88-19.84"/>
  <path class="f" d="M142.31,245.53c5.85-11.27,16.8-17.71,23.77-27.91C169.38,232.25,154.85,241.47,142.31,245.53Z"/>
  <path class="f" d="M156,212.54c-8.91,9.7-25,12.57-27.86,28C141.45,235.87,159.33,228.49,156,212.54Z"/>
  <path class="f" d="M135.36,195.74c-11.32,8.93-33.47,6.58-42.42,25.53C110.67,219.69,136.56,206.12,135.36,195.74Z"/>
  <path class="f" d="M120.94,175.34c-19.2,2.45-37.37,5.45-51.24,12.95l-.91,2.61C90.41,193.65,111.48,187.42,120.94,175.34Z"/>
  <path class="f" d="M144.92,204.67c-12.18,8.37-28.57,12.76-34.7,26.85C126.91,228.3,145,219.32,144.92,204.67Z"/>
  <path class="f" d="M127,185c-13.9,7-32.2,6.39-42.8,20.61C101.61,206.61,121.61,200,127,185Z"/>
  <path class="f" d="M103.63,140.38c-3,0-6-.23-9-.53q-2.69,3.71-5.19,7.54A28.66,28.66,0,0,0,103.63,140.38Z"/>
  <path class="f" d="M109.41,152.49a160.75,160.75,0,0,1-23.48.49q-2.79,4.64-5.33,9.43C92,162.2,102.49,159.64,109.41,152.49Z"/>
  <path class="f" d="M113.9,163.66c-14.18,3.2-23.81,2.92-34.89,2.72l-4.8,10S106,179.3,113.9,163.66Z"/>
  <path class="f" d="M394,140.38c4.52,4.3,10.42,6.57,16.95,7.48q-2.73-4.2-5.67-8.25A101.6,101.6,0,0,1,394,140.38Z"/>
  <path class="f" d="M413.47,205.56c-10.6-14.22-28.9-13.66-42.81-20.61C376,200,396,206.61,413.47,205.56Z"/>
  <path class="f" d="M431.67,190.56c-.06-.15-.11-.31-.17-.47-14.11-8.84-34.13-12.11-54.8-14.75C386.51,187.86,409.27,194.09,431.67,190.56Z"/>
  <path class="f" d="M404,221.73c-8.54-19.14-31.9-18.6-43-27.78C359.73,207.84,386.35,219.76,404,221.73Z"/>
  <path class="f" d="M355.33,245.53c-5.85-11.27-16.8-17.71-23.77-27.91C328.26,232.25,342.79,241.47,355.33,245.53Z"/>
  <path class="f" d="M352.72,204.67c-.05,14.65,18,23.63,34.7,26.85C381.28,217.43,364.9,213,352.72,204.67Z"/>
  <path class="f" d="M388.23,152.49c7.41,7.66,18.92,10.06,31.29,9.93q-2.56-4.84-5.39-9.52A173,173,0,0,1,388.23,152.49Z"/>
  <path class="f" d="M341.6,212.54c-3.29,16,14.59,23.33,27.85,28C366.64,225.11,350.51,222.24,341.6,212.54Z"/>
  <path class="f" d="M425,174.83c-.32-.86-2.38-6.74-3.3-6.72-13.17.29-19.33-2.55-38.6-4.45C392.9,175.46,403.45,178.21,425,174.83Z"/>
  <path class="e" d="M203.77,203.71c-14.37-8.42-28.82-19.89-28.71-40.8,0-6.64,2-11.73,3.91-16.66,1.53-4,3-7.69,3.42-12.11,1-9.84-2.9-14.73-6.95-18.9-11.25-11.57-30.34-18.34-48.79-24.89C110.88,84.76,94.61,79,83.43,70.2a19.33,19.33,0,0,0,2.86,13.33c.74,1,3.31,2.56,5.58,3.9,3.19,1.87,5.94,3.5,6.79,5.26l.81,1.67-1.84.28c-5.41.81-8.1,2.39-10.2,6.11,5,5.32,13,7.17,21.57,9.12l5.09,1.17-3.32,1.72a42.05,42.05,0,0,1-5,2c-2.89,1-5.87,2.1-7.67,3.87,1.62.89,3.09,1.86,4.52,2.8,4.44,2.91,8.63,5.65,16.5,5.45l2.57-.07L120.3,129a34.26,34.26,0,0,1-4.11,4.77c-2.34,2.41-5,5.12-5.94,7.73,5.62,2.49,10.91,3.65,17,5,2.15.46,4.37,1,6.76,1.52l3.05.73-2.62,1.74c-4.31,2.87-6.66,8.27-8.92,13.51A105.25,105.25,0,0,0,150,167.4l3.28.11-2.38,2.25c-1.17,1.12-2.26,2.07-3.31,3-3.32,2.89-5.8,5.05-7.77,9.65,6.75,2.72,10.5,4.22,19.78,4.74l2.64.15-1.64,2.07c-2.13,2.69-2.59,4.61-3.28,7.52-.25,1.07-.53,2.25-.93,3.6,2.87.7,3.08,1.84,8.19,1.84a90.39,90.39,0,0,0,11.59-.71l3.29-.46-2,2.65c-4.33,6.88-3.27,11.08-3.47,19,5.51-.09,10.83-1.74,15.13-3.07"/>
  <path class="g" d="M309.62,219.77c4.3,1.33,9.61,3,15.13,3.07.42-8.21,1.83-11.77-2.9-20.06l-2-2.64,3.29.46a90.57,90.57,0,0,0,11.6.7c5.1,0,4.73-.12,7.61-.82-.4-1.35-.68-2.53-.93-3.6-.69-2.91-1.15-4.83-3.29-7.52l-1.63-2.07,2.63-.15c9.29-.52,13-2,19.78-4.74-2-4.6-4.44-6.76-7.76-9.65-1.05-.92-2.14-1.87-3.32-3l-2.38-2.25,3.28-.11a105.33,105.33,0,0,0,24.5-3.42c-2.26-5.24-4.61-10.64-8.93-13.51l-2.62-1.74,3.06-.73c2.39-.57,4.61-1.06,6.75-1.52,6.08-1.32,11.38-2.48,17-5-1-2.61-3.59-5.32-5.93-7.74a33,33,0,0,1-4.11-4.76l-1.37-2.17,2.56.07c7.89.21,12.07-2.54,16.51-5.45,1.43-.94,2.89-1.91,4.51-2.8-1.8-1.77-4.77-2.83-7.66-3.87a42.05,42.05,0,0,1-5-2L384.64,111l5.09-1.17c8.52-2,16.6-3.8,21.57-9.12-2.1-3.72-4.79-5.3-10.21-6.11l-1.84-.28.81-1.67c.85-1.77,3.61-3.39,6.8-5.26,2.26-1.34,4.84-2.85,5.58-3.9A19.33,19.33,0,0,0,415.3,70.2C404.12,79,387.84,84.76,372.08,90.35c-18.46,6.55-37.54,13.32-48.8,24.89-4,4.17-7.92,9.06-6.95,18.9.44,4.42,1.89,8.15,3.42,12.11,1.91,4.93,3.89,10,3.92,16.66.11,20.91-14.35,32.38-28.71,40.8"/>
  <path class="e" d="M219.61,203H220a25.19,25.19,0,0,0,1.86-3.27,20.6,20.6,0,0,1,3.1-4.87,30.78,30.78,0,0,1,5.21-4.4c3.38-2.44,6.3-4.55,6.42-8.69a10.69,10.69,0,0,0-3.14-7.89,15.11,15.11,0,0,0-10.68-4.39,11.46,11.46,0,0,0-8.39,3.32l-1,1.05-1-1.05c-1.87-1.93-1.81-5.3-1.75-8.56,0-.81,0-1.62,0-2.39v-.53l.33-.41c2.63-3.16,6.53-6.76,13.65-7.14a5.79,5.79,0,0,1,1.41-3.15c3.39-3.91,12-4.74,18.57-4.74a74.36,74.36,0,0,1,8.95.54c4.4.57,8.05,3.77,11.58,6.87,3.92,3.45,8,7,13.05,7h0a12.24,12.24,0,0,0,3.43-.51l4.93-1.42-3.5,3.75a18.92,18.92,0,0,1-13.11,6.38c1.59,5.39,2.31,11.64,3,17.7.67,5.84,1.37,11.87,2.84,17M232.36,158.7m6.33-.55-3.93.95"/>
  <path class="c" d="M234.76,160.52c3.12,0,6.38-1.52,9.88-3.12a23.94,23.94,0,0,0-5.95-.67,39.76,39.76,0,0,0-10,1.33A8.86,8.86,0,0,0,234.76,160.52Z"/>
  <path class="h" d="M250.61,413.83l-.77-.42a13.32,13.32,0,0,1-2.05-1.28l-.38-.26c-8.37-5.95-20.55-9.44-32.34-12.83-3.26-.93-6.64-1.9-9.85-2.9-7-2.19-15.17-5-22.16-9.43-5-3.14-12.05-8.1-16.11-14.83-5.92-9.84-8.07-22.33-6-35.17a213.73,213.73,0,0,1,5.32-22.82c1-3.82,2.11-7.78,3-11.62,2.34-9.76,4.5-24.07,1.51-36.78a100.16,100.16,0,0,0-5.16-15.66c-1-2.37-2.16-4.75-3.3-7.06s-2.47-5-3.5-7.51l-.53-1.3,1.49-.32c19.22-4,31.48-14.34,37.5-31.55l.16-.45H303.27l.2.62c2.53,9,6.48,16,12.25,20.9,6.41,5.42,14.75,8.21,23.94,11l1,.31-.12.69a34.26,34.26,0,0,1-2.75,6.35l-.31.43c-4.75,8.91-10,19.75-10.16,34.68-.1,8.81,2.19,16.7,4.11,24.32.43,1.69.87,3.44,1.28,5.16l.16.69c1.05,4.42,2.13,9,3.3,13.48l.34,1.33A80.43,80.43,0,0,1,339.2,335a68.57,68.57,0,0,1-.38,16.81c-2.42,15.3-9.47,26.66-21.55,34.73-3.48,2.32-7.66,3.94-12.09,5.65l-.77.31c-5.42,2.1-11.24,3.73-16.86,5.31-3.86,1.09-7.85,2.2-11.67,3.47a100,100,0,0,0-24.55,12.09Z"/>
  <path class="c" d="M186.28,337.3a2.81,2.81,0,1,0-2.8,3.1h.29a2.85,2.85,0,0,0,.67-.16l1.78,1.81,1.65-1.62-1.78-1.82A2.7,2.7,0,0,0,186.28,337.3Zm-2.77.57a.3.3,0,0,1-.31-.25.33.33,0,0,1,.25-.31h0a.27.27,0,0,1,.27.25A.28.28,0,0,1,183.51,337.87Zm52.71-8.44a22.58,22.58,0,0,0-4.85-9.27c-4.07-4.78-8.89-8.41-15.38-9.23-4.14-.52-7.38.84-9.49,4.48a16.2,16.2,0,0,0-2.23,11.75c.53,2.54,1.32,5,2,7.62-3.83,3.47-4,4.38-1.36,9.06-2.08,5.58-4.18,11.2-6.29,16.81l-2.08-4-1.78.92,2.91,5.66c-.26.72-.53,1.43-.8,2.14l-2.4-4.65-1.78.92,2.46,4.77h6.39l6.23-5,6.05,5h5.38c-2.9-7.73-5.72-15.27-8.5-22.69l1.88-2.93c6.24,3.08,12,3.47,17.33,1.27C235.59,339.69,237.71,335.35,236.22,329.43Zm-30.33,9.88c.15-1.28,1-1.67,2.13-1.57a1.78,1.78,0,0,1,1.84,1.94,2.3,2.3,0,0,1-2.23,2.07A2.09,2.09,0,0,1,205.89,339.31ZM201,363.57c-.11-2.49-.11-2.49,2.76-2.22Zm14.31.64c-1.23-1-2.3-1.9-3.74-3.07C214.7,361.16,214.7,361.16,215.27,364.21Zm-1.88-6.08H202.3c.54-1.44.95-2.56,1.4-3.79h8.24C212.44,355.63,212.87,356.76,213.39,358.13ZM210.75,351c-2,.76-3.84.4-5.92.32.93-2.52,1.78-4.79,2.63-7.07l.78,0Zm-3.93-25.68c4.32,8.12,5.89,9.67,15.68,15.51C212.32,340.74,206,332,206.82,325.36Zm20.61,14a43.06,43.06,0,0,1-5.43-1.77,25.38,25.38,0,0,1-11.8-11.34c-1.38-2.61-2.32-5.41-1.61-8.47a5.26,5.26,0,0,1,5.21-4.46,12,12,0,0,1,4,.45,23.84,23.84,0,0,1,15.46,14.64,14,14,0,0,1,.82,3.62C234.53,336.5,232,339.19,227.43,339.38Zm-31.25,11.87c2.57-1.56,2.9-3.84.68-5.83-.22-.19-.29-.56-.41-.79.35-.83.69-1.55,1-2.29a13.71,13.71,0,0,0-1-12.41c-1.8-2.91-4.46-3.87-7.85-3.37-6.89,1-13.83,8.19-15.1,14.95a7.1,7.1,0,0,0,3.36,7.88,13.78,13.78,0,0,0,12.72,1l2.42-.93c.32.45.74.78.68,1a167.59,167.59,0,0,1-6.22,16h2.78c1.43-3.7,3.91-9.57,5.22-12.83A5,5,0,0,1,196.18,351.25Zm-15.77-3.58c-3.24-.27-4.68-1.68-4.43-4.9a13,13,0,0,1,1.22-4.53,18.4,18.4,0,0,1,8.66-8.32,7.13,7.13,0,0,1,1.27-.46c2.11-.62,4.29-1.17,6.06.62s1.41,4.23.63,6.38a17.43,17.43,0,0,1-8.95,9.79A30.1,30.1,0,0,1,180.41,347.67Zm6.69.64,7.72-7.19A9,9,0,0,1,187.1,348.31Zm36-26.41a3.46,3.46,0,0,0-3.46,3.46,3.41,3.41,0,0,0,.2,1.11l-3.56,2.83,1.45,1.81,3.54-2.82a3.46,3.46,0,1,0,1.83-6.39Zm.39,4.52-1.33-1.67a1.1,1.1,0,0,1,.94-.53,1.14,1.14,0,0,1,1.14,1.14A1.13,1.13,0,0,1,223.52,326.42Z"/>
  <path class="c" d="M274.81,361.81l16.76-59.51,9.19,32.62,7.58,26.89,11.81,15.08-22-14.46-5.61,14.46-7.05-14.18-22.66,14.18Zm26.38.51L312,369.39l-5.14-6.56a1.67,1.67,0,0,1-.27-.51Zm-10.65-1.74V350l-12.85,10.55ZM280.35,349l-2.6,9.24L289,349Zm25.29,10.12L302.79,349h-8.93Zm-13.23-22.42v6.94l4.89-6.94Zm-1.87,6.86v-6.86H285.8Zm0-15.29v-3.4h-1.66Zm1.87-3.4v4.9l1.9-4.9Zm3.09-1.74-3.09-11v11Zm-5-10.29-2.9,10.29h2.9ZM287,325.26l-2.72,9.66h6.23v-2.49Zm-3.28,11.65-2.91,10.32h9.7v-.48Zm20.87,23.67-12.21-10.49v10.49Zm-2.32-13.35-2.92-10.35-7,9.9v.45Zm-3.47-12.31-2.71-9.62-3.71,9.54v.08Zm-22.52,27.92-5.55,7,12-7.49h-6.14A1.86,1.86,0,0,1,276.31,362.84Zm11-.52,5,10,3.88-10ZM298.84,324h6a.9.9,0,0,0,.93-.87v-7.32h2.51a.88.88,0,1,0,0-1.75h-2.51v-7.32a.9.9,0,0,0-.93-.87h-6a.9.9,0,0,0-.93.87V323.1a.9.9,0,0,0,.93.87m.94-16.39h4.15V314h-2.27a.88.88,0,1,0,0,1.75h2.27v6.45h-4.15Zm-16.94-2.75h1.33v3.76a.9.9,0,0,0,.93.87h3.21a.9.9,0,0,0,.93-.87v-9.27a.91.91,0,0,0-.93-.88H285.1a.91.91,0,0,0-.93.88v3.76h-1.33a.88.88,0,1,0,0,1.75m4.53-4.64v7.53H286v-2.91a.86.86,0,1,0,0-1.71v-2.91Zm-11.2,19.27h2.3v5a.9.9,0,0,0,.93.87h4.42a.9.9,0,0,0,.93-.87V312.68a.9.9,0,0,0-.93-.87H279.4a.9.9,0,0,0-.93.87v5h-2.3a.87.87,0,1,0,0,1.74m4.16-5.91h2.56v10.07h-2.56v-4.16h.17a.87.87,0,1,0,0-1.74h-.17ZM271,324.14a6.13,6.13,0,0,1-3.3-6.93,6.55,6.55,0,0,1,6.19-4.92v1.16a6.06,6.06,0,0,0-4.07,2.25,5,5,0,0,0-1,3.2c.13,2.46,1.76,4.06,5,4.89v1.1a5.87,5.87,0,0,1-2.89-.75m2.89-9.72c-3.09.63-4.55,2.56-4,5.18a3.8,3.8,0,0,0,4,3v-.9a3.48,3.48,0,0,0-.62-.18,3,3,0,0,1,.09-5.79l.53-.18Zm0,3.27,0,0V316.4c-1.52.57-2.07,1.21-2,2.27s.65,1.71,2,2.11v-1.22c-.95-.8-.95-1.1,0-1.87m5.05-10.18a4,4,0,0,1-2.15-4.51,4.26,4.26,0,0,1,4-3.2v.75A4,4,0,0,0,278.1,302a3.22,3.22,0,0,0-.63,2.08c.08,1.6,1.15,2.64,3.28,3.18V308a3.84,3.84,0,0,1-1.88-.49m1.88-6.33c-2,.41-3,1.67-2.61,3.37a2.47,2.47,0,0,0,2.61,1.93v-.58a2.34,2.34,0,0,0-.4-.12,2,2,0,0,1-1.43-1.84,2,2,0,0,1,1.49-1.92l.34-.12Zm0,2.13,0,0v-.82c-1,.37-1.35.79-1.33,1.48s.43,1.11,1.33,1.37v-.79c-.62-.52-.62-.72,0-1.22m37.12,13.38a8.53,8.53,0,0,1-8,6.41v-1.51a7.89,7.89,0,0,0,5.28-2.94,6.46,6.46,0,0,0,1.27-4.15c-.17-3.19-2.29-5.28-6.55-6.35v-1.44a7.7,7.7,0,0,1,3.75,1,8,8,0,0,1,4.29,9m-2.83-3.1a5,5,0,0,0-5.21-3.86v1.17a5.06,5.06,0,0,0,.8.24,4,4,0,0,1,2.85,3.68c.09,1.68-1.05,3.08-3,3.84l-.68.24v1.42c4-.82,5.91-3.32,5.21-6.73m-2.57,1.21c0-1.39-.85-2.23-2.64-2.74v1.58c1.22,1,1.23,1.43.05,2.43,0,0,0,0-.05.05v1.63c2-.74,2.68-1.57,2.64-2.95"/>
  <path class="c" d="M258.32,250.45c1.69,1,1,2.35,1.12,3.52a4,4,0,0,0,3.53,3.72,4.23,4.23,0,0,0,4.1-2.66c1.09-2.31-1.23-5.89-4.45-5.23-1.33.27-1.9-.12-2.31-1.21l3.16-3.89c-1-1-1.89-1.9-2.74-2.77s-1.6-1.61-2.35-2.46-1.79-1.43-1.8-2.87l4.12,3.32L277,222.8l-8.59-8.61L251.59,231c.61,1.59,2.93,2,3.08,4.67l-6.75-6.5-9.22,9.15c1.6,1.61,3.43,3.41,5.2,5.26a5.29,5.29,0,0,1,.7,1.36l-.33.21L240.89,242l-16.77,16.78,8.34,8.36c5.44-5.44,11.1-11.07,16.82-16.78L246.11,247l.45-.42c3,2,5.05,5.18,8,7.39l3.72-3.52m5,1.69a1.56,1.56,0,1,1-1.6,1.79,1.57,1.57,0,0,1,1.6-1.79m5.14-34.56,5.44,5.18-13.78,13.73c-2-1.21-3.53-3.56-5.26-5.32l13.6-13.59m-36.36,46.77L227,258.9l13.83-13.83c1.74,1.77,3.62,3.66,5.24,5.29l-13.94,14m10.07-26.82c1.56-1.54,3.45-3.41,5.15-5.07l12.85,12.73-5.1,5.25-12.9-12.91m13.15,24.13,1.24-1.3c4.41,2.89,8.88,3.88,13.14-.11,3.61-3.4,3.67-7.67.17-13.51l1.05-1.06c4.95,3.49,4.8,11.41,1,15.61-5,5.53-12.93,4.62-16.6.37M273.8,243.3c5.95,4.83,6.24,15.07.3,21-6.75,6.73-16.74,5.35-21.4-.32l1.15-1.2c7.33,4.82,13.78,4.76,18.56,0s4.92-10.65.19-18.42l1.2-1.09m-13,15.22a5.56,5.56,0,0,0,6.51-1,5.33,5.33,0,0,0,.94-6.26c-.47-1-1.24-2,.38-2.73,3.24,2.57,3.43,7.26.44,10.45a7.21,7.21,0,0,1-10.87,0l1-1.28c.59.29,1.1.57,1.63.81"/>
  <path class="i" d="M175.28,241.63l2-1.06-.38,2.25,1.63,1.59-2.26.33-1,2-1-2-2.26-.33,1.63-1.59-.38-2.25Zm13.19,8.82.38,2.24-1.63,1.6,2.26.32,1,2.05,1-2.05,2.26-.32-1.63-1.6.38-2.24-2,1.06Zm43.9-23.94.38,2.25-1.63,1.59,2.25.33,1,2,1-2,2.26-.33L236,228.76l.39-2.25-2,1.06Zm-12,12.18.38,2.25-1.63,1.59,2.26.33,1,2,1-2,2.26-.33L224,240.94l.38-2.25-2,1.06Zm5.21-27.28.39,2.25-1.63,1.59,2.25.33,1,2,1-2,2.25-.33-1.63-1.59.39-2.25-2,1.06ZM185.2,231.62l.39,2.25L184,235.46l2.25.32,1,2.05,1-2.05,2.26-.32-1.64-1.59.39-2.25-2,1.06ZM200,237.56l.38,2.25-1.63,1.59,2.26.33,1,2,1-2,2.26-.33-1.63-1.59.38-2.25-2,1.06Zm-2.37-16.49.38,2.25-1.63,1.59,2.26.33,1,2,1-2,2.26-.33-1.63-1.59.38-2.25-2,1.06Zm15.76,2.34.38,2.24-1.63,1.6,2.26.32,1,2.05,1-2.05,2.26-.32-1.63-1.6.38-2.24-2,1.06Zm-5.58-13.95.38,2.24-1.63,1.6,2.26.32,1,2,1-2,2.26-.32-1.63-1.6.38-2.24-2,1.06Zm113.25,32.17-2-1.06.39,2.25-1.64,1.59,2.26.33,1,2,1-2,2.25-.33-1.63-1.59.39-2.25Zm-13.66,8.48-2-1.06.38,2.24-1.63,1.6,2.26.32,1,2,1-2,2.26-.32-1.63-1.6.38-2.24Zm-99.53,3.12.38,2.24-1.63,1.6,2.25.32,1,2.05,1-2.05,2.26-.32-1.64-1.6.39-2.24-2,1.06Zm101.25-20.55-2-1.06.39,2.25-1.64,1.59,2.26.32,1,2.05,1-2.05,2.25-.32-1.63-1.59.39-2.25Zm-17.2,4-2-1.06.38,2.25-1.63,1.59,2.26.33,1,2,1-2,2.26-.33-1.63-1.59.38-2.25Zm4.79-14.52-2-1.06.38,2.25-1.63,1.59,2.26.33,1,2,1-2,2.26-.33-1.63-1.59.38-2.25ZM292,254.61l-2-1.06.38,2.25-1.63,1.59,2.26.33,1,2,1-2,2.26-.33-1.63-1.59.38-2.25Zm-5.45-44.09-2-1.06.38,2.24-1.63,1.6,2.26.32,1,2,1-2,2.26-.32-1.63-1.6.38-2.24Z"/>
  <path class="j" d="M383.59,264.51,251.06,277.38,119.13,265.11m-.12,5.78,132.05,13.48,131.53-12.7M119,277.38l132.05,14L382.5,278.65"/>
  <path class="k" d="M250,303.79l-10-27.58m10,137.13V303.79l-14.76-21.13M228.87,289,250,303.79"/>
  <path class="l" d="M53.27,160l6.24-3.28-1.19,7,5,4.93-7,1L53.27,176l-3.13-6.33-7-1,5.06-4.93-1.2-7Zm386.27-9.1,1.19,7-5.05,4.92,7,1,3.12,6.33,3.12-6.33,7-1-5.06-4.92,1.2-7-6.25,3.28ZM64.46,121.33l1.19,7L60.6,133.2l7,1,3.12,6.32,3.12-6.32,7-1-5-4.92,1.19-7-6.24,3.28Zm354.88-5.22,1.19,7-5,4.93,7,1,3.12,6.33L428.7,129l7-1-5.05-4.93,1.19-7-6.24,3.28Z"/>
  <path class="m" d="M134.88,58c-2.33,2.07-2.2,2.76-1.23,4.17l5.74,8.33c2.84,4.15,3.31,8.87-1.28,12-5.12,3.52-9.63,2-12.37-2l-6-8.77c-.95-1.38-1.49-1.83-4.25-.39-.14.09-.32,0-.47-.23s-.18-.43,0-.52c1.74-1.19,2.53-1.5,4.16-2.62s2.22-1.76,4-3c.1-.07.33,0,.46.23s.15.45,0,.52c-2.33,2.07-2.13,2.75-1.18,4.13l5.77,8.39c3.49,5.07,6.5,4.84,9.54,2.75,3.26-2.24,3.78-5.65.64-10.22l-5.56-8.07c-.94-1.38-1.56-1.77-4.33-.34-.11.07-.32,0-.47-.23s-.15-.44,0-.51c1.21-.83,2.08-1.2,3.34-2.07s1.78-1.45,3.09-2.36c.1-.07.34,0,.47.23S135,57.89,134.88,58Zm27.23-14.09c-2.62,1.73-2.61,2.52-1.89,4L168.51,65c.08.17,0,.34-.2.46a.8.8,0,0,1-.57,0l-23.17-9.3,6.56,13.4c.69,1.49,1.47,1.9,4.35.83.16,0,.32.05.44.28s.09.46,0,.52c-1.45.74-2.64,1.13-4,1.81s-2.32,1.39-3.63,2.06c-.11.06-.3,0-.43-.29a.4.4,0,0,1,.05-.53c2.6-1.72,2.59-2.51,1.87-4L143.4,56.42c-.73-1.51-1.46-1.89-4.39-.84-.11.06-.29-.07-.4-.3s-.12-.44,0-.52c1-.49,1.85-.72,2.67-1.14,1-.5,1.31-.88,2.33-1.4l21.56,8.53L159,48.51c-.75-1.46-1.58-1.84-4.47-.77-.15,0-.31-.05-.43-.28s-.09-.46,0-.52c1.48-.75,2.63-1.16,4-1.83s2.34-1.38,3.65-2c.14-.07.3,0,.43.29A.44.44,0,0,1,162.11,43.88Zm21.51,14.9c-2,.75-2.81.86-4.66,1.56s-2.55,1.18-4.55,1.94c-.12,0-.3-.09-.4-.33a.43.43,0,0,1,.08-.51c2.77-1.43,2.72-2.17,2.14-3.71l-5.41-14.18c-.6-1.57-1-2.12-4.07-1.38-.12,0-.31-.09-.4-.33s0-.47.08-.52c2-.76,2.84-.87,4.68-1.57s2.56-1.18,4.52-1.93c.15-.06.32.12.4.33s.07.45-.08.51c-2.75,1.46-2.69,2.16-2.09,3.73l5.4,14.18c.59,1.54,1,2.13,4,1.36.16,0,.3.09.4.34S183.77,58.72,183.62,58.78ZM202.69,35.7a.34.34,0,0,1-.37-.13c-1.81-2.88-3.68-3.3-6.63-2.48l-1.44.39c-1,.28-1.26.62-1,1.55l4.36,15.78c.43,1.58.84,2.21,3.91,1.73.16,0,.3.12.37.37s0,.46-.13.5c-2,.56-2.91.6-4.78,1.12s-2.68.94-4.71,1.5c-.12,0-.3-.12-.36-.37a.43.43,0,0,1,.12-.5c2.89-1.17,2.91-1.91,2.48-3.49l-4.36-15.78c-.26-.94-.66-1.09-1.65-.82l-1.19.33c-2.68.74-5.07,3-5.13,5.73a.33.33,0,0,1-.28.31c-.34.09-.63,0-.62-.2a50.94,50.94,0,0,0,.16-5.76c1.27-.08,4.06-.65,9.68-2.2a65.55,65.55,0,0,0,9.64-3.13c.77,1.93,1.34,3,2.36,5.07C203.23,35.38,203.09,35.59,202.69,35.7ZM226,48.79c-2,.26-6.39.83-8.5,1.17s-6.43,1.16-8.4,1.54c-.16,0-.28-.15-.32-.41s0-.42.18-.48c3-.84,3.07-1.57,2.81-3.19l-2.4-15c-.27-1.66-.56-2.29-3.68-2.19-.15,0-.28-.15-.32-.4s0-.46.18-.49c2-.22,6.07-.77,8.15-1.11s6.15-1.08,8.12-1.49a33.2,33.2,0,0,0,1.8,4.64c.1.21-.12.41-.47.46a.37.37,0,0,1-.38-.16,4.88,4.88,0,0,0-5.57-3l-3.18.51a1.7,1.7,0,0,0-1.52,2.2l1.14,7.09,4-.63c1.64-.26,2.51-.66,2.39-3.81,0-.16.15-.29.4-.33s.46,0,.48.19c.26,1.59.2,2.45.44,3.94s.57,2.33.82,3.92c0,.12-.18.29-.4.32s-.46-.05-.48-.18c-.87-3-1.85-3.3-3.49-3l-4,.63L215,47.38A1.68,1.68,0,0,0,217.14,49l3.43-.55a7.69,7.69,0,0,0,5.72-5.36.31.31,0,0,1,.27-.17c.34-.06.67.15.63.32A41,41,0,0,0,226,48.79Zm15.3-1c-1.4.06-4.3.05-5.76.11s-4.36.25-5.76.37c-.16,0-.26-.19-.27-.44s.07-.43.23-.46c3.08-.49,3.24-1.2,3.17-2.84l-.62-15.11c-.07-1.67-.29-2.34-3.39-2.6-.16,0-.26-.18-.28-.44s.08-.45.24-.46c1.41,0,4.27-.05,5.77-.11s4.36-.27,5.76-.33C248,25.17,252.71,30,253,36.25,253.21,42.21,249.41,47.46,241.26,47.79Zm-1-21.24-3,.19c-.89.06-1.86.36-1.8,1.94L236.14,45a1.63,1.63,0,0,0,2,1.75l3,0c4.87-.2,8.62-4.55,8.38-10.35C249.22,30.44,245.23,26.28,240.26,26.55ZM270,49.09c-2.73-.28-3.83-1.4-6.21-1.64.12-1.74.18-3.93.18-5.49,0-.16.25-.23.5-.21s.34.1.39.3c.73,4.09,2.17,5.7,5.37,6,2.73.28,4.2-1.32,4.46-3.86.53-5.16-9.82-6.64-9.19-12.86.33-3.2,3.21-5.95,7.39-5.53,2.19.23,2.83.88,4.82,1.08-.06,1.84-.07,3.23,0,5,0,.13-.21.24-.44.22s-.43-.11-.45-.31c-.39-3.34-1.62-4.73-4.06-5a3.65,3.65,0,0,0-4.27,3.51c-.47,4.62,9.77,6.57,9.16,12.47C277.18,47.07,274.24,49.53,270,49.09Zm33.16-11.94a.33.33,0,0,1-.27-.29c-.32-3.38-1.79-4.6-4.79-5.21l-1.47-.3c-1-.2-1.39,0-1.58.93l-3.26,16c-.33,1.61-.25,2.35,2.71,3.31.15.07.21.24.16.5s-.18.42-.34.39c-2.06-.42-2.86-.78-4.77-1.17s-2.82-.37-4.88-.79c-.12,0-.21-.24-.16-.49s.21-.39.34-.39c3.1.26,3.46-.39,3.79-2l3.25-16c.2-.95-.1-1.27-1.1-1.47l-1.21-.25c-2.72-.55-5.86.35-7.17,2.79a.32.32,0,0,1-.39.15c-.34-.07-.56-.28-.46-.46a53.47,53.47,0,0,0,2.75-5.06c1.17.5,3.91,1.25,9.62,2.41a66,66,0,0,0,10,1.57,55.85,55.85,0,0,0-.19,5.59C303.75,37.11,303.53,37.23,303.12,37.15Zm17.69,23.26c-2-.64-2.58-1-4.25-1.57-1.88-.6-2.82-.69-4.82-1.33-.12,0-.19-.26-.11-.51s.2-.41.32-.37c2,.54,2.72.29,3-.48a4.62,4.62,0,0,0,.14-1.37l-.12-5.69-6.25-2-3.25,4.21a5.07,5.07,0,0,0-.81,1.36c-.26.83.11,1.56,2,2.26.12,0,.12.24,0,.49s-.25.39-.38.35c-1.79-.57-2.15-.89-3.82-1.42-1.34-.43-2-.45-3.46-.9-.15,0-.18-.27-.07-.5a.47.47,0,0,1,.47-.32c2.18.49,3.13-.39,4.5-1.95l12.74-15.38a.43.43,0,0,1,.5-.11.43.43,0,0,1,.35.38l.67,19.67a4.31,4.31,0,0,0,2.88,4.3.46.46,0,0,1,.16.52C321.11,60.3,320.93,60.44,320.81,60.41Zm-6.06-21.12-5.4,6.93L314.91,48Zm31.3,14a.31.31,0,0,1-.2-.34c.4-3.38-.78-4.88-3.58-6.11l-1.37-.61c-.93-.41-1.36-.31-1.75.57l-6.59,15c-.66,1.51-.74,2.24,1.95,3.81.13.1.15.28.05.52s-.27.37-.42.31c-1.92-.85-2.63-1.37-4.41-2.15s-2.67-1-4.6-1.81c-.12-.06-.15-.28-.05-.52a.45.45,0,0,1,.42-.31c3,.92,3.46.36,4.12-1.14l6.59-15c.39-.89.17-1.26-.76-1.67l-1.14-.5c-2.54-1.12-5.8-.9-7.6,1.2a.33.33,0,0,1-.41.07c-.32-.15-.49-.4-.35-.55a53.72,53.72,0,0,0,3.76-4.36,63.51,63.51,0,0,0,8.89,4.4,66,66,0,0,0,9.46,3.66,51,51,0,0,0-1.37,5.42C346.67,53.35,346.43,53.42,346.05,53.26Zm9.74,24.85c-1.7-1.06-5.47-3.38-7.32-4.45s-5.72-3.16-7.49-4.11c-.14-.08-.13-.29,0-.51s.3-.32.45-.27c2.85,1.24,3.37.72,4.2-.7l7.59-13.14c.83-1.46,1-2.14-1.47-4-.14-.08-.13-.29,0-.52s.31-.34.45-.26c1.69,1.09,5.2,3.23,7,4.28s5.45,3,7.24,4a31.93,31.93,0,0,0-1.52,4.74c-.06.23-.36.24-.67.06a.38.38,0,0,1-.19-.37A4.89,4.89,0,0,0,361.63,57l-2.79-1.61a1.72,1.72,0,0,0-2.57.75l-3.59,6.23,3.48,2c1.43.83,2.36,1.07,4.25-1.44.08-.14.3-.13.52,0s.34.3.26.44c-.81,1.4-1.39,2-2.15,3.34s-1,2.16-1.83,3.56c-.07.11-.33.11-.52,0s-.32-.34-.26-.45c1.23-2.9.64-3.72-.79-4.55l-3.48-2-4,6.86a1.68,1.68,0,0,0,.65,2.57l3,1.74a7.7,7.7,0,0,0,7.82-.54.31.31,0,0,1,.32,0c.3.17.42.54.28.65A42.19,42.19,0,0,0,355.79,78.11Zm8.59,6.56c-2.24-1.59-2.65-3.1-4.6-4.48,1-1.46,2.1-3.34,2.86-4.69.1-.13.33-.08.54.06s.25.26.19.45c-1.38,3.93-.92,6,1.71,7.89,2.23,1.59,4.3.92,5.78-1.15,3-4.23-5.28-10.62-1.66-15.72,1.86-2.63,5.72-3.61,9.15-1.17,1.79,1.27,2,2.15,3.66,3.31-1,1.57-1.65,2.77-2.47,4.37-.05.12-.31.1-.49,0s-.32-.31-.24-.49c1.31-3.1.92-4.92-1.08-6.34a3.66,3.66,0,0,0-5.45,1c-2.68,3.78,5.26,10.53,1.83,15.36C371.65,86.47,367.88,87.16,364.38,84.67ZM46.79,213.17a.39.39,0,0,1,.3-.3A5.14,5.14,0,0,0,52,208.51l.61-2.84a1.74,1.74,0,0,0-1.51-2.28L44,201.86l-.77,3.6c-.35,1.64-.3,2.61,2.72,3.65.16,0,.21.25.16.5s-.19.42-.35.39c-1.6-.35-2.39-.72-3.89-1s-2.4-.32-4-.66c-.13,0-.22-.25-.16-.5s.22-.41.35-.38c3.17.28,3.79-.54,4.14-2.18l.77-3.6-7.37-1.59c-1.62-.35-2.37-.28-3.38,2.71a.43.43,0,0,1-.5.15c-.26,0-.42-.22-.4-.35.45-2.08.83-2.89,1.25-4.84s.4-2.82.85-4.9c0-.16.25-.21.5-.16s.4.18.4.35c-.31,3.13.35,3.48,2,3.83l15,3.23c1.66.36,2.37.31,3.42-2.66,0-.16.24-.22.5-.16s.42.19.39.35c-.52,2-1.5,6-1.94,8.1s-1.19,6-1.52,8a36.34,36.34,0,0,0-5.07.13C46.82,213.8,46.72,213.51,46.79,213.17ZM27,231.93c.29-2,.91-6.46,1.15-8.61s.59-6.59.75-8.62c0-.16.23-.23.48-.21s.42.15.43.31c0,3.15.71,3.42,2.36,3.61l15.28,1.68c1.69.19,2.39.07,3.12-3,0-.16.23-.23.49-.2s.44.14.42.3c-.32,2-.87,6.14-1.11,8.26s-.59,6.3-.72,8.33a32.73,32.73,0,0,0-5,.51c-.24,0-.37-.23-.33-.58a.36.36,0,0,1,.26-.33,5,5,0,0,0,4.39-4.65l.36-3.24a1.72,1.72,0,0,0-1.74-2.07l-7.24-.8-.44,4c-.19,1.67,0,2.63,3.07,3.36.17,0,.24.22.21.48s-.14.44-.3.42c-1.63-.18-2.45-.47-4-.63s-2.43-.08-4.05-.26c-.13,0-.23-.25-.21-.47s.18-.44.31-.42c3.19,0,3.71-.93,3.9-2.59l.44-4-8-.89a1.7,1.7,0,0,0-2.11,1.65l-.39,3.5a7.8,7.8,0,0,0,3.69,7,.33.33,0,0,1,.1.3c0,.36-.33.62-.49.53A41.87,41.87,0,0,0,27,231.93Zm-.46,18.56c0-1.42.08-4.36.07-5.84s-.11-4.42-.19-5.84c0-.17.19-.26.45-.27s.43.1.46.26c.4,3.12,1.11,3.31,2.78,3.29l15.31-.15c1.69,0,2.38-.22,2.74-3.36,0-.16.19-.26.45-.26s.46.09.46.26C49,240,49,242.9,49,244.42s.14,4.42.16,5.84c.08,7.74-4.94,12.38-11.3,12.44C31.79,262.76,26.59,258.75,26.51,250.49Zm21.54-.35-.1-3c0-.91-.31-1.9-1.91-1.89l-16.55.17a1.65,1.65,0,0,0-1.84,1.92l-.07,3c.05,4.93,4.34,8.86,10.21,8.8C43.83,259.09,48.16,255.17,48.05,250.14ZM29.49,285.86c-.2-2-.65-6.49-.93-8.64s-1-6.54-1.32-8.55c0-.16.17-.28.42-.31s.44,0,.49.2c.76,3.05,1.5,3.15,3.15,2.94l15.24-2c1.69-.23,2.34-.51,2.32-3.66,0-.16.16-.28.42-.32s.47,0,.49.2c.17,2,.61,6.17.88,8.28s.92,6.26,1.28,8.26a33.24,33.24,0,0,0-4.75,1.7c-.21.09-.41-.14-.46-.49a.4.4,0,0,1,.18-.39,4.94,4.94,0,0,0,3.16-5.55l-.42-3.23a1.73,1.73,0,0,0-2.18-1.61l-7.22.95.52,4c.22,1.66.6,2.56,3.79,2.53.16,0,.29.16.32.42s0,.46-.2.48c-1.62.21-2.49.13-4,.33s-2.37.5-4,.71c-.13,0-.29-.19-.32-.41s.07-.47.2-.48c3.09-.8,3.39-1.78,3.17-3.44l-.53-4-8,1a1.72,1.72,0,0,0-1.67,2.11l.46,3.49a7.78,7.78,0,0,0,5.25,5.95.29.29,0,0,1,.17.27c0,.35-.17.68-.34.63A42.74,42.74,0,0,0,29.49,285.86Zm6.25,27.88c-.26-1.07-.42-2.53-.59-3.22-.23-.9-.67-1.89-.89-2.8L40.91,301c1.93-2,2.11-2.35,1.52-4.73L35.62,298c-1.62.4-2.26.79-1.86,3.91,0,.13-.13.3-.38.36s-.48,0-.51-.14c-.51-2.07-.52-3-1-4.9s-.87-2.71-1.38-4.78c0-.16.13-.3.38-.36s.43,0,.51.14c1.09,3,1.84,3,3.45,2.57l14.93-3.68c1.65-.4,2.27-.76,1.9-3.89,0-.16.13-.3.38-.36s.47,0,.5.14c.51,2.07.52,2.93,1,4.87s.88,2.75,1.39,4.81c1.19,4.83-.41,7.88-3.9,8.74-2.41.6-4.94-1-6.66-3.57l-6.55,7c-.75.75-1.56,1.82-1.19,4.72,0,.13-.13.26-.39.33S35.78,313.89,35.74,313.74Zm18.08-16.92c-.76-3.08-1.63-2.93-3.27-2.52L43.48,296a15.44,15.44,0,0,0,.44,2.32c.88,3.57,2.94,4.43,6.26,3.61C52.84,301.31,54.57,299.86,53.82,296.82Zm-8.74,42.39c-.75-2-.8-2.7-1.43-4.36-.7-1.88-1.21-2.68-1.95-4.68-.05-.12.09-.31.33-.4s.45-.1.5,0c.83,1.93,1.47,2.35,2.23,2.06a5.07,5.07,0,0,0,1.18-.75l4.45-3.66-2.32-6.23-5.39.05a5.11,5.11,0,0,0-1.59.21c-.82.31-1.17,1.06-.55,3,.05.12-.12.25-.36.34s-.47,0-.52-.08C39,323,39,322.46,38.4,320.79c-.5-1.33-.92-1.89-1.45-3.31-.06-.15.09-.31.35-.38a.51.51,0,0,1,.55.18c1,2,2.27,2.25,4.37,2.36l20.22.5a.44.44,0,0,1,.4.33.43.43,0,0,1-.08.52L47.53,333.85a4.35,4.35,0,0,0-1.62,5,.48.48,0,0,1-.32.46C45.35,339.38,45.12,339.33,45.08,339.21Zm13-18.06-8.9.06,2.07,5.53Zm-3.29,37.73c-.87-1.87-2.82-6.06-3.78-8s-3.1-5.88-4.08-7.66c-.06-.12.06-.32.29-.44a.44.44,0,0,1,.53,0c1.73,2.64,2.47,2.52,4,1.77l13.73-6.91c1.52-.76,2-1.27,1-4.24-.06-.12.06-.32.29-.44s.47-.09.52,0c1,1.9,1.18,2.76,2.08,4.55s1.45,2.45,2.41,4.35c.07.15-.09.34-.29.44s-.46.12-.53,0c-1.76-2.62-2.46-2.48-4-1.72l-14.17,7.13a1.7,1.7,0,0,0-.88,2.54l1.44,2.85c1.52,3,4.13,3.27,7.26,3.18.1,0,.19.08.24.2.15.29,0,.66-.11.71A42.62,42.62,0,0,0,54.79,358.88Zm18,27c-1.14-1.65-3.77-3.67-5.35-6-4.69-6.8-2.3-13.39,2.67-16.82,5.24-3.61,12.62-2.79,17,3.58,1.6,2.31,2.34,4.43,3.48,6.07-1.38,1.15-2.86,2.53-4.14,3.77-.14.09-.37-.07-.51-.28a.35.35,0,0,1,0-.47,7,7,0,0,0,.25-8.6c-2.91-4.22-9.11-4.58-14.07-1.15s-6.63,9.25-3.83,13.31a8.37,8.37,0,0,0,9.18,3.59.41.41,0,0,1,.47.22c.15.21.15.44,0,.52C76.54,384.22,74.46,385.11,72.83,385.84Zm10.39,13.93c-4.9-5.53-4-12.33.92-16.68S96.08,378.5,101,384s3.82,12.53-1.07,16.86S88.14,405.32,83.22,399.77Zm17-15c-3.51-4-9.19-3-13.71,1s-6,9.37-2.49,13.33,9,3.16,13.56-.84S103.71,388.68,100.2,384.72Zm18.16,47.06c-1.63-1.37-2.24-2.15-3.77-3.44s-2.3-1.68-3.93-3c-.12-.11-.09-.34.08-.54s.34-.26.49-.18c2.6,1.72,3.21,1.3,4.26,0L125.17,412,106.5,422.12A.45.45,0,0,1,106,422a.44.44,0,0,1-.18-.5l6.62-19.21-10.59,10.75c-1.17,1.19-1.33,2,.8,4.26.11.13,0,.29-.12.49s-.42.25-.52.17c-1.25-1.07-2.06-2-3.22-3s-2.25-1.64-3.39-2.6c-.1-.08,0-.3.12-.5a.46.46,0,0,1,.52-.16c2.65,1.77,3.44,1.49,4.61.3l11.19-10.67c1.22-1.19,1.29-2-.83-4.33-.1-.08,0-.29.13-.49s.41-.25.51-.16c.87.72,1.53,1.54,2.22,2.12.86.73,1.75,1.23,2.64,2l-6.41,18.37,17.19-9.28c1,.81,1.45,1.48,2.32,2.21,1,.87,1.58,1.07,2.67,2,.12.1.07.36-.08.54s-.37.28-.49.18c-2.62-1.7-3.21-1.3-4.28,0l-9.34,12.23c-1,1.31-1.32,2,.87,4.32a.44.44,0,0,1-.1.52C118.68,431.8,118.48,431.88,118.36,431.78Zm30,18.72c-1.82-1.1-2.55-1.77-4.26-2.81s-2.53-1.3-4.35-2.4c-.14-.09-.15-.32,0-.55s.3-.31.45-.25c2.84,1.29,3.38.78,4.21-.66L152,429.94,135.1,442.8a.52.52,0,0,1-.77-.47l3.55-20-8.79,12.27c-1,1.35-1,2.17,1.46,4.08.12.11.09.29-.05.51s-.37.31-.48.24c-1.41-.85-2.36-1.66-3.66-2.44s-2.47-1.27-3.74-2c-.11-.07-.09-.28,0-.51a.47.47,0,0,1,.49-.24c2.89,1.33,3.62.94,4.59-.42l9.4-12.28c1-1.37,1-2.21-1.49-4.15-.11-.07-.09-.28,0-.51s.38-.3.49-.24c1,.59,1.75,1.29,2.52,1.76,1,.58,1.92.93,2.92,1.54L138.14,439l15.54-11.84c1.08.65,1.66,1.24,2.63,1.82,1.16.7,1.73.82,2.95,1.56.13.08.13.34,0,.54s-.32.34-.46.25c-2.85-1.27-3.37-.78-4.22.69l-7.33,13.53c-.81,1.46-1,2.19,1.53,4.14a.43.43,0,0,1,0,.52C148.64,450.47,148.46,450.58,148.32,450.5ZM183.69,442c-3-.87-3.56-.38-4.24,1.21l-4,9.43c-2,4.68-5.79,7.65-11,5.43-5.79-2.46-6.91-7.16-5-11.67l4.22-9.91c.67-1.56.76-2.26-2-3.85-.15-.06-.16-.28-.06-.52s.27-.38.42-.32c2,.83,2.65,1.34,4.49,2.13s2.72.94,4.68,1.78c.12.05.15.31.06.52s-.3.37-.42.32c-3-.87-3.51-.33-4.17,1.24l-4,9.48c-2.45,5.74-.62,8.19,2.83,9.66,3.68,1.56,6.87.16,9.08-5l3.88-9.12c.67-1.57.67-2.31-2.05-3.9-.12-.05-.17-.28-.06-.52s.3-.37.41-.32c1.37.58,2.15,1.13,3.58,1.74s2.21.73,3.7,1.36c.12.05.15.31.06.52S183.81,442.09,183.69,442Zm27.48,7.75c-3.14-.5-3.68.1-4.15,1.7l-5.46,18.43c-.05.19-.21.28-.46.21s-.31-.22-.43-.38l-11-22.78-4.24,14.51c-.5,1.59-.19,2.42,2.7,3.59.14.07.19.25.12.51s-.24.4-.37.37c-1.58-.44-2.74-1-4.21-1.37s-2.69-.54-4.12-.93c-.13,0-.21-.23-.13-.51s.24-.38.4-.37c3.11.49,3.65-.11,4.12-1.7l4.65-14.67c.48-1.62.2-2.41-2.71-3.62-.13,0-.17-.25-.1-.51s.22-.41.37-.37c1.06.3,1.88.73,2.78,1,1.09.3,1.58.24,2.7.55L202,464.51l3.7-13.4c.44-1.61.07-2.45-2.82-3.62-.15-.08-.19-.26-.12-.51s.24-.41.36-.37c1.62.44,2.76.93,4.22,1.33s2.69.57,4.12,1c.16,0,.21.22.13.51S211.3,449.79,211.17,449.79Zm9.44,23.32c-2.1-.34-2.9-.67-4.87-1s-2.84-.27-5-.61c-.13,0-.23-.24-.18-.5s.19-.4.33-.41c3.14.15,3.48-.52,3.75-2.16l2.47-15.18c.28-1.67.16-2.38-2.86-3.27-.13,0-.23-.24-.18-.49s.2-.44.32-.41c2.14.34,2.93.67,4.91,1s2.83.27,4.94.61c.16,0,.21.27.18.49s-.17.44-.33.41c-3.15-.12-3.45.53-3.73,2.21L217.92,469c-.27,1.64-.2,2.38,2.84,3.24.15.06.22.23.18.49S220.77,473.14,220.61,473.11ZM247.38,475c-2-.13-5.22.68-8,.51C231.14,475,227.44,469,227.83,463c.4-6.35,5.61-11.65,13.34-11.16,2.81.18,4.93.9,6.92,1,0,1.8.22,3.81.4,5.58,0,.17-.28.25-.54.23s-.35-.12-.37-.28a7,7,0,0,0-6.6-5.52c-5.12-.33-9.23,4.32-9.61,10.35-.37,5.86,3.16,10.92,8.08,11.23a8.34,8.34,0,0,0,8.5-5,.45.45,0,0,1,.47-.23c.26,0,.44.16.43.29C248.4,471.07,247.81,473.26,247.38,475Zm28.55-.81c-2.13.13-2.82,0-4.59.08-2,.11-2.92.37-5,.49-.12,0-.27-.18-.28-.44s0-.46.17-.47c2.08-.22,2.67-.71,2.62-1.52a5,5,0,0,0-.37-1.36l-2.19-5.33-6.64.4-1.53,5.15a5.14,5.14,0,0,0-.27,1.59c.06.88.67,1.43,2.71,1.41.12,0,.2.18.22.44s-.11.47-.23.48c-1.91.11-2.37-.06-4.14,0-1.42.09-2.08.32-3.6.41-.16,0-.27-.18-.25-.44a.51.51,0,0,1,.33-.48c2.24-.33,2.82-1.5,3.54-3.48L262.81,452a.45.45,0,0,1,.44-.28.41.41,0,0,1,.46.23l7.81,18.34a4.36,4.36,0,0,0,4.29,3,.49.49,0,0,1,.35.44C276.17,474,276.06,474.18,275.93,474.19Zm-13.44-17.74L259.93,465l5.89-.35Zm33.5-2.9a.32.32,0,0,1-.35-.17c-1.54-3.09-3.38-3.7-6.43-3.19l-1.5.26c-1,.17-1.32.49-1.16,1.45l2.77,16.35c.27,1.64.62,2.31,3.76,2.14.17,0,.29.15.33.41s0,.47-.17.5c-2.11.35-3,.3-4.94.63s-2.8.67-4.9,1c-.12,0-.28-.15-.33-.41a.44.44,0,0,1,.18-.49c3-.88,3.13-1.63,2.85-3.27l-2.76-16.34c-.17-1-.56-1.17-1.58-1l-1.24.21c-2.77.47-5.41,2.47-5.76,5.25a.31.31,0,0,1-.31.28c-.35.06-.63-.06-.6-.26a54.41,54.41,0,0,0,.76-5.79c1.28.05,4.15-.24,10-1.22a68.36,68.36,0,0,0,10-2.16,51.73,51.73,0,0,0,1.86,5.34C296.57,453.29,296.41,453.48,296,453.55Zm17.72,12.7c-2.06.56-2.92.59-4.85,1.11s-2.69.93-4.78,1.5c-.12,0-.3-.13-.36-.38a.44.44,0,0,1,.13-.51c2.92-1.16,2.95-1.91,2.52-3.52l-4-14.84c-.44-1.64-.84-2.24-4-1.8-.12,0-.3-.12-.36-.38s0-.47.13-.5c2.08-.57,2.94-.6,4.88-1.12s2.69-.93,4.74-1.49c.16,0,.31.16.37.38s0,.46-.13.51c-2.92,1.19-2.93,1.9-2.48,3.54l4,14.84c.43,1.61.81,2.25,3.92,1.78.17,0,.3.12.37.38S313.87,466.21,313.71,466.25Zm17.59-5.41c-6.9,2.66-12.95-.57-15.31-6.69s-.13-12.79,6.77-15.45,13.07.8,15.42,6.89S338.22,458.17,331.3,460.84Zm-8.17-21.16c-4.94,1.9-6,7.56-3.83,13.19s6.68,8.9,11.62,7,6.12-7.37,3.95-13S328.07,437.77,323.13,439.68Zm37.16-18.07c-2.59,1.85-2.55,2.65-1.77,4.12l9,17c.1.18,0,.35-.18.48a.78.78,0,0,1-.58,0L343,434.65,350.13,448c.75,1.49,1.55,1.87,4.43.68.16,0,.32,0,.45.27s.11.46,0,.52c-1.44.8-2.64,1.24-4,2s-2.31,1.5-3.6,2.23c-.12.06-.31,0-.45-.28a.41.41,0,0,1,0-.54c2.56-1.83,2.52-2.63,1.74-4.1l-7-13.72c-.79-1.5-1.55-1.87-4.47-.69-.12.06-.3-.06-.42-.29s-.14-.45,0-.52c1-.54,1.84-.8,2.66-1.26,1-.55,1.29-.94,2.31-1.5L364,438.57l-6.76-12.15c-.8-1.46-1.66-1.8-4.54-.61-.16.05-.32-.05-.45-.28s-.11-.46,0-.52c1.47-.82,2.62-1.27,4-2s2.32-1.47,3.61-2.19c.14-.08.31,0,.45.27A.46.46,0,0,1,360.29,421.61Zm20.27,12.69c-2.26,1.61-3.84,1.51-5.81,2.92-1.08-1.4-2.5-3.11-3.55-4.29-.09-.13,0-.34.25-.5a.37.37,0,0,1,.49,0c3.3,2.62,5.47,2.87,8.12,1,2.25-1.61,2.3-3.82.8-5.91-3.06-4.27-11.91,1.54-15.6-3.6-1.9-2.66-1.56-6.67,1.91-9.15,1.81-1.3,2.72-1.24,4.38-2.42,1.19,1.44,2.11,2.5,3.36,3.81.1.09,0,.33-.19.46s-.4.21-.54.07c-2.54-2.28-4.41-2.5-6.43-1.06a3.7,3.7,0,0,0-.89,5.53c2.74,3.82,11.83-1.56,15.32,3.33C384.69,427.93,384.1,431.76,380.56,434.3ZM410.89,407c-1.45,1.38-3,4.3-5.05,6.21-6,5.7-12.86,4.37-17,0-4.39-4.6-4.74-12,.87-17.37,2-1.94,4-3,5.45-4.39,1.35,1.19,2.94,2.43,4.36,3.51.12.11,0,.36-.19.54a.33.33,0,0,1-.46.08,7,7,0,0,0-8.54,1.1c-3.71,3.54-3.09,9.71,1.08,14.08s10.17,5.1,13.74,1.7a8.36,8.36,0,0,0,2.1-9.63.45.45,0,0,1,.15-.5c.19-.18.42-.22.51-.12C408.7,403.6,409.91,405.52,410.89,407Zm12-12.54c-4.68,5.72-11.54,5.9-16.61,1.74s-6.43-11.06-1.74-16.78,11.76-5.75,16.81-1.62S427.63,388.74,422.92,394.48Zm-17.55-14.37c-3.35,4.09-1.49,9.54,3.18,13.37s10.21,4.43,13.56.34,1.69-9.42-3-13.25S408.73,376,405.37,380.11Zm43.7-25.46c-1.09,1.83-1.76,2.56-2.79,4.28s-1.29,2.54-2.38,4.36c-.09.14-.32.15-.54,0s-.32-.3-.26-.46c1.28-2.84.76-3.38-.68-4.21l-13.93-7.55,12.94,16.82a.45.45,0,0,1,0,.52c-.14.22-.33.3-.46.26l-20-3.47L433.25,374c1.36,1,2.17,1,4.07-1.47.11-.12.29-.09.51,0s.31.38.25.49c-.85,1.41-1.65,2.36-2.43,3.66s-1.26,2.48-2,3.76c-.07.11-.28.09-.51,0a.47.47,0,0,1-.24-.49c1.32-2.89.92-3.62-.45-4.59L420.11,366c-1.37-1-2.21-1-4.14,1.51-.06.11-.28.09-.51,0s-.31-.38-.24-.49c.58-1,1.28-1.75,1.74-2.53.59-1,.93-1.92,1.53-2.92l19.16,3.39L425.74,349.4c.64-1.08,1.23-1.67,1.81-2.64.69-1.16.81-1.73,1.54-2.95.08-.14.34-.13.54,0s.34.31.26.45c-1.26,2.86-.77,3.38.7,4.22l13.57,7.27c1.46.8,2.19,1,4.13-1.55a.41.41,0,0,1,.52,0C449,354.33,449.16,354.52,449.07,354.65ZM462.63,322c-.79,2-1.34,2.8-2.08,4.66s-.88,2.71-1.68,4.68c-.06.15-.29.2-.53.1s-.36-.25-.33-.41c.82-3,.23-3.45-1.33-4.05l-14.93-5.28,15.41,14.59a.47.47,0,0,1,.07.52c-.1.24-.28.34-.41.32l-20.33-.29,13.52,6.7c1.5.74,2.31.65,3.8-2.09.09-.14.27-.14.51,0s.36.32.32.44c-.62,1.53-1.26,2.59-1.83,4s-.85,2.65-1.41,4c0,.12-.26.14-.51,0a.45.45,0,0,1-.31-.44c.85-3.07.34-3.72-1.16-4.47l-13.63-7.3c-1.51-.78-2.33-.59-3.85,2.14-.05.12-.27.13-.51,0s-.36-.32-.31-.44c.42-1.05,1-1.94,1.32-2.77.43-1.05.62-2.05,1.05-3.13l19.46.36-14.19-13.44c.47-1.17,1-1.84,1.38-2.89.51-1.26.53-1.84,1.06-3.16.06-.15.32-.18.53-.1s.39.26.33.41c-.79,3-.23,3.46,1.36,4.06L458,323.85c1.57.56,2.32.62,3.83-2.18a.46.46,0,0,1,.52-.07C462.55,321.7,462.69,321.86,462.63,322Zm4.12-15.63c-.56,2.05-1,2.81-1.51,4.74s-.56,2.79-1.13,4.87c0,.13-.26.2-.51.13s-.38-.24-.37-.37c.48-3.11-.15-3.52-1.76-4l-14.82-4.08c-1.64-.45-2.36-.41-3.56,2.5,0,.13-.26.2-.51.13s-.41-.25-.38-.37c.58-2.09,1-2.84,1.52-4.77s.56-2.79,1.13-4.85c0-.15.29-.18.51-.12s.41.21.37.37c-.45,3.12.16,3.49,1.79,3.94l14.82,4.07c1.61.44,2.35.45,3.53-2.47.07-.15.26-.2.51-.13S466.8,306.22,466.75,306.38Zm3.16-12.29c-.53,2.73-1.75,3.74-2.21,6.12-1.74-.27-3.95-.53-5.52-.67-.16,0-.21-.27-.17-.52s.13-.34.34-.36c4.19-.38,5.94-1.69,6.56-4.89.52-2.73-1-4.36-3.49-4.84-5.16-1-7.58,9.32-13.8,8.12-3.2-.61-5.72-3.76-4.92-7.94.42-2.19,1.13-2.78,1.52-4.77,1.85.22,3.25.36,5.06.45.14,0,.22.24.18.46s-.15.43-.35.42c-3.41.1-4.92,1.23-5.39,3.67a3.7,3.7,0,0,0,3.17,4.61c4.61.89,7.5-9.27,13.4-8.13C468.52,286.63,470.73,289.82,469.91,294.09Zm2.85-18.59c-.29,2.76-1.43,3.88-1.69,6.28-1.76-.12-4-.2-5.56-.2-.16,0-.23-.26-.21-.51s.11-.35.31-.39c4.15-.73,5.78-2.17,6.13-5.41.29-2.76-1.32-4.27-3.88-4.54-5.23-.56-6.78,9.92-13.07,9.24-3.25-.34-6-3.27-5.57-7.5.24-2.22.9-2.86,1.12-4.88,1.86.07,3.27.09,5.08,0,.13,0,.24.22.22.45s-.12.44-.32.45c-3.38.38-4.8,1.63-5.06,4.1A3.7,3.7,0,0,0,453.8,277c4.67.5,6.7-9.87,12.67-9.23C470.75,268.18,473.22,271.17,472.76,275.5Zm.8-22.77c-.06,2.13-.28,3-.34,5s.12,2.85.06,5c0,.13-.21.25-.47.24a.43.43,0,0,1-.45-.27c-.27-3.14-1-3.38-2.64-3.43l-15.37-.43c-1.7-.05-2.39.16-2.87,3.28,0,.13-.2.25-.46.24s-.45-.14-.45-.27c.06-2.16.28-3,.34-5s-.12-2.85-.06-5c0-.16.24-.25.46-.24s.46.11.45.27c.31,3.14,1,3.35,2.68,3.4l15.37.43c1.66.05,2.39-.13,2.83-3.25,0-.16.21-.25.47-.24S473.56,252.57,473.56,252.73Zm-.2-18.39c.56,7.36-4.28,12.23-10.82,12.72s-12.28-3.57-12.84-10.93,4.54-12.29,11-12.78S472.8,226.93,473.36,234.34Zm-22.62,1.71c.4,5.27,5.51,7.93,11.53,7.47s10.45-3.83,10.05-9.11-5.29-8-11.31-7.52S450.34,230.77,450.74,236.05Zm-6.38-40.78c1,3,1.8,3.21,3.43,2.89l18.87-3.68c.19,0,.35.05.4.31a.76.76,0,0,1-.15.56L451.8,215.62l14.83-3c1.64-.28,2.23-.94,1.93-4,0-.16.14-.29.39-.34s.48,0,.51.15c.34,1.61.41,2.88.73,4.37s.77,2.64,1.08,4.09c0,.13-.11.29-.39.35a.43.43,0,0,1-.51-.19c-1-3-1.78-3.18-3.42-2.86l-15.15,2.65c-1.67.33-2.24.95-2,4.09,0,.12-.15.26-.4.31s-.47,0-.5-.15c-.23-1.07-.23-2-.43-2.92-.23-1.1-.52-1.5-.76-2.64l13.93-18.9-13.59,2.92c-1.63.35-2.21,1.07-1.91,4.17,0,.17-.14.3-.39.35s-.48,0-.5-.15c-.36-1.65-.45-2.88-.77-4.36s-.74-2.65-1-4.1c0-.16.11-.29.39-.35A.44.44,0,0,1,444.36,195.27Z"/>
</svg>
